<?xml version="1.0" encoding="UTF-8" standalone="no"?>
<!-- Created with Inkscape (http://www.inkscape.org/) -->

<svg
   version="1.1"
   id="svg1"
   width="150"
   height="210"
   viewBox="0 0 150 210"
   sodipodi:docname="nerdoc_logo.svg"
   inkscape:version="1.4.2 (ebf0e94, 2025-05-08)"
   inkscape:export-filename="mgmssi_brand_color.png"
   inkscape:export-xdpi="96"
   inkscape:export-ydpi="96"
   xmlns:inkscape="http://www.inkscape.org/namespaces/inkscape"
   xmlns:sodipodi="http://sodipodi.sourceforge.net/DTD/sodipodi-0.dtd"
   xmlns="http://www.w3.org/2000/svg"
   xmlns:svg="http://www.w3.org/2000/svg">
  <defs
     id="defs1" />
  <sodipodi:namedview
     id="namedview1"
     pagecolor="#ffffff"
     bordercolor="#000000"
     borderopacity="0.25"
     inkscape:showpageshadow="2"
     inkscape:pageopacity="0.0"
     inkscape:pagecheckerboard="0"
     inkscape:deskcolor="#d1d1d1"
     inkscape:zoom="1.4039643"
     inkscape:cx="-69.802346"
     inkscape:cy="19.231259"
     inkscape:window-width="1883"
     inkscape:window-height="1055"
     inkscape:window-x="37"
     inkscape:window-y="0"
     inkscape:window-maximized="1"
     inkscape:current-layer="g1"
     showgrid="true">
    <inkscape:grid
       id="grid1"
       units="px"
       originx="-70"
       originy="-40"
       spacingx="10"
       spacingy="10"
       empcolor="#0099e5"
       empopacity="0.30196078"
       color="#0099e5"
       opacity="0.14901961"
       empspacing="5"
       enabled="true"
       visible="true" />
  </sodipodi:namedview>
  <g
     inkscape:groupmode="layer"
     inkscape:label="Image"
     id="g1"
     transform="translate(-70,-40)">
    <rect
       style="fill:#1e2f0e;fill-opacity:1;stroke:none;stroke-width:0.774595;stroke-opacity:1"
       id="rect1"
       width="10.000001"
       height="150"
       x="70"
       y="40" />
    <rect
       style="fill:#1e2f0e;fill-opacity:1;stroke:none;stroke-width:0.774595;stroke-opacity:1"
       id="rect1-1"
       width="10.000001"
       height="150"
       x="160"
       y="40" />
    <rect
       style="fill:#1e2f0e;fill-opacity:1;stroke:none;stroke-width:0.774595;stroke-opacity:1"
       id="rect1-8"
       width="10.000001"
       height="109.99995"
       x="100"
       y="40.000046" />
    <rect
       style="fill:#1e2f0e;fill-opacity:1;stroke:none;stroke-width:0.774595;stroke-opacity:1"
       id="rect1-8-7"
       width="10.000001"
       height="109.99995"
       x="180"
       y="40" />
    <rect
       style="fill:#1e2f0e;fill-opacity:1;stroke:none;stroke-width:0.774597;stroke-opacity:1"
       id="rect1-8-9"
       width="10.000001"
       height="59.99995"
       x="130"
       y="40.000046" />
    <rect
       style="fill:#1e2f0e;fill-opacity:1;stroke:none;stroke-width:0.774598;stroke-opacity:1"
       id="rect1-8-9-4"
       width="10.000001"
       height="119.99999"
       x="140"
       y="40" />
    <rect
       style="fill:#1e2f0e;fill-opacity:1;stroke:none;stroke-width:0.774597;stroke-opacity:1"
       id="rect1-8-9-0"
       width="10.000001"
       height="70"
       x="80"
       y="40" />
    <rect
       style="fill:#1e2f0e;fill-opacity:1;stroke:none;stroke-width:0.774597;stroke-opacity:1"
       id="rect1-8-9-0-4"
       width="10.000001"
       height="100"
       x="200"
       y="40" />
    <rect
       style="fill:#1e2f0e;fill-opacity:1;stroke:none;stroke-width:0.774597;stroke-opacity:1"
       id="rect1-8-9-0-5"
       width="10.000001"
       height="90"
       x="90"
       y="40" />
    <rect
       style="fill:#1e2f0e;fill-opacity:1;stroke:none;stroke-width:0.774597;stroke-opacity:1"
       id="rect1-8-9-0-5-9"
       width="10.000001"
       height="80"
       x="110"
       y="40" />
    <rect
       style="fill:#1e2f0e;fill-opacity:1;stroke:none;stroke-width:0.774597;stroke-opacity:1"
       id="rect1-8-9-2"
       width="10.000001"
       height="59.99995"
       x="190"
       y="40.000053" />
    <rect
       style="fill:#1e2f0e;fill-opacity:1;stroke:none;stroke-width:0.774597;stroke-opacity:1"
       id="rect1-8-9-0-5-9-1"
       width="10.000001"
       height="80"
       x="170"
       y="40" />
    <rect
       style="fill:#1e2f0e;fill-opacity:1;stroke:none;stroke-width:0.774597;stroke-opacity:1"
       id="rect1-8-9-0-5-9-0"
       width="10.000001"
       height="90"
       x="120"
       y="40" />
    <rect
       style="fill:#1e2f0e;fill-opacity:1;stroke:none;stroke-width:0.774595;stroke-opacity:1"
       id="rect1-3"
       width="9.9999924"
       height="150"
       x="210"
       y="40" />
    <rect
       style="fill:#1e2f0e;fill-opacity:1;stroke:none;stroke-width:0.547721;stroke-opacity:1"
       id="rect1-3-1-3-6-7"
       width="10"
       height="100"
       x="150"
       y="40"
       inkscape:export-filename="montessori_symbol_narrow.png"
       inkscape:export-xdpi="96"
       inkscape:export-ydpi="96" />
    <path
       style="font-weight:600;font-size:69.3932px;font-family:FreeSans;-inkscape-font-specification:'FreeSans Semi-Bold';letter-spacing:-1.72301px;word-spacing:-1.09491px;fill:#1e2f0e;stroke-width:1.0524"
       d="m 198.99691,223.13517 q -3.60845,0 -5.89842,3.33088 -2.28998,3.26148 -2.28998,8.46597 0,5.13509 2.28998,8.39658 2.28997,3.26148 5.89842,3.26148 3.60845,0 5.89842,-3.19209 2.28998,-3.19209 2.28998,-8.32719 0,-5.34327 -2.28998,-8.60475 -2.22058,-3.33088 -5.89842,-3.33088 z"
       transform="scale(1.0126274,0.98753006)"
       id="path5" />
    <path
       style="font-weight:600;font-size:69.3932px;font-family:FreeSans;-inkscape-font-specification:'FreeSans Semi-Bold';letter-spacing:-1.72301px;word-spacing:-1.09491px;fill:#1e2f0e;stroke-width:1.0524"
       d="m 199.35718,251.53287 q -7.14284,0 -11.71425,-5.61928 -4.49999,-5.61926 -4.49999,-13.91113 0,-8.36038 4.64285,-13.97966 4.64284,-5.6878 11.57139,-5.6878 6.99998,0 10.64282,5.41369 V 200 h 9.99998 v 49.95674 H 210 v -3.76904 q -3.71426,5.34517 -10.64282,5.34517 z"
       id="path4" />
    <path
       style="font-weight:600;font-size:69.3932px;font-family:FreeSans;-inkscape-font-specification:'FreeSans Semi-Bold';letter-spacing:-1.72301px;word-spacing:-1.09491px;fill:#1e2f0e;stroke-width:1.0524"
       d="m 160,200 h 10 v 9.80632 q 1.57143,-5.0882 4.42857,-7.86357 2.85713,-2.77537 6.28571,-2.77537 0.64285,0 1.21427,0.0925 v 13.13677 q -1.7857,-0.37007 -3.14284,-0.37007 -8.78571,0 -8.78571,11.37906 v 26.55108 h -10 z"
       id="path3" />
    <path
       style="font-weight:600;font-size:69.3932px;font-family:FreeSans;-inkscape-font-specification:'FreeSans Semi-Bold';letter-spacing:-1.72301px;word-spacing:-1.09491px;fill:#1e2f0e;stroke-width:1.0524"
       d="m 141.65472,230.97661 q -0.34697,-4.0942 -2.28998,-6.31479 -1.87361,-2.22058 -5.27388,-2.22058 -6.38417,0 -7.35568,8.53537 z"
       transform="scale(1.0126274,0.98753006)"
       id="path2" />
    <path
       style="font-weight:600;font-size:69.3932px;font-family:FreeSans;-inkscape-font-specification:'FreeSans Semi-Bold';letter-spacing:-1.72301px;word-spacing:-1.09491px;fill:#1e2f0e;stroke-width:1.0524"
       d="m 135.92462,214.03432 q 2.45943,0 4.77832,0.52444 2.31889,0.52449 4.70806,1.90118 2.45942,1.37668 4.21616,3.54006 1.827,2.09783 2.95132,5.6379 1.12431,3.47452 1.12431,7.99795 0,0.78667 -0.0703,1.57335 h -25.43755 q 0.0703,2.03227 0.35135,3.54008 0.35136,1.44226 1.12431,2.88451 0.84324,1.37668 2.38917,2.16337 1.61619,0.72113 4.00535,0.72113 5.62156,0 7.51884,-4.45787 h 9.69719 q -1.61621,5.24456 -6.39452,8.39128 -4.77833,3.08118 -11.17285,3.08118 -8.08099,0 -12.71877,-4.85122 -4.63778,-4.91676 -4.63778,-13.43916 0,-8.91574 4.70805,-14.02918 4.70805,-5.179 12.85931,-5.179 z"
       id="path1" />
    <path
       style="font-weight:600;font-size:69.3932px;font-family:FreeSans;-inkscape-font-specification:'FreeSans Semi-Bold';letter-spacing:-1.72301px;word-spacing:-1.09491px;fill:#1e2f0e;stroke-width:1.0524"
       d="M 99.881957,249.95674 80.118053,215.41868 v 34.53806 h -10.11804 v -49.95683 h 10.387854 l 19.49409,33.98983 V 199.99991 H 110 v 49.95683 z"
       id="text1" />
  </g>
</svg>
